PSF_ID_stride4.mot
nRows=13
nColumns=38

name PSF_ID_stride4.mot
datacolumns 38
datarows 13
range 1.9950000000 2.0550000000
endheader
time	pelvis_tilt_moment	pelvis_list_moment	pelvis_rotation_moment	pelvis_tx_force	pelvis_ty_force	pelvis_tz_force	hip_flexion_r_moment	hip_adduction_r_moment	hip_rotation_r_moment	knee_angle_r_moment	ankle_angle_r_moment	subtalar_angle_r_moment	mtp_angle_r_moment	hip_flexion_l_moment	hip_adduction_l_moment	hip_rotation_l_moment	knee_angle_l_moment	ankle_angle_l_moment	subtalar_angle_l_moment	mtp_angle_l_moment	lumbar_extension_moment	lumbar_bending_moment	lumbar_rotation_moment	arm_flex_r_moment	arm_add_r_moment	arm_rot_r_moment	elbow_flex_r_moment	pro_sup_r_moment	wrist_flex_r_moment	wrist_dev_r_moment	arm_flex_l_moment	arm_add_l_moment	arm_rot_l_moment	elbow_flex_l_moment	pro_sup_l_moment	wrist_flex_l_moment	wrist_dev_l_moment
        1.9950000000	        9.9217416423	      -39.4320839922	       27.9462596345	       -8.3403356905	      -87.1315340012	      -64.8018503662	      -21.7484573617	       -6.2204155702	        1.0379216995	       -1.1951995843	        2.3284913258	       -0.5865421005	        0.1268684940	        5.6857602500	      -27.8844288815	      -13.3906665270	      -14.0058307523	     -165.9565185457	       27.3516429207	       -0.0560245457	       -8.6065290223	        6.2719007832	       39.4307956188	        6.7801263969	        4.5541404977	        3.8646533518	        3.7010025794	        0.0471861562	        0.4909594659	       -0.1898121776	       -1.3692366624	       -1.8811009471	       -3.1150138145	        3.1755636462	       -0.1753708758	       -0.3092086935	       -0.3283076082	
        2.0000000000	       12.5042199957	      -36.7035040653	       26.8476245173	        2.3780353769	      -72.8360629444	      -56.4134855962	      -24.3270484261	       -6.6037754947	        0.9948908765	       -1.7674337434	        2.3535463669	       -0.6209133462	        0.1268208453	       13.9550901748	      -19.2143179253	      -13.0705726230	      -14.4567452255	     -150.3552584166	       26.3262161753	       -0.0646364145	      -10.9514124320	        5.5412729813	       36.8921469140	        6.0681429642	        3.8952830876	        3.4693432943	        3.2344840748	        0.0470828902	        0.4434973945	       -0.1551518521	       -1.7567145798	       -1.5717899953	       -2.7718921465	        2.6391268583	       -0.1566076133	       -0.2854165758	       -0.2733805831	
        2.0050000000	       13.8235474123	      -22.3234832785	       21.6125537364	        8.4340668938	      -48.7571449840	      -52.3443252573	      -26.5101446454	       -6.7678609657	        0.8621460708	       -2.2913127149	        2.3941953125	       -0.6564901798	        0.1276369543	       28.4827444256	      -13.4390527676	       -9.1299523194	      -12.2524306308	     -133.1159939155	       25.3133382704	       -0.0715806127	      -11.6031249839	        3.3055742556	       34.0684356561	        5.3544668299	        3.2538100654	        3.0639613541	        2.8613713011	        0.0448338522	        0.3969687776	       -0.1304922584	       -2.0934633896	       -1.2150183237	       -2.3973389783	        2.1955542652	       -0.1385732036	       -0.2558463281	       -0.2277609520	
        2.0100000000	       12.6604876028	       -5.3010969297	       15.0131827309	        8.9748441902	      -16.2358294207	      -54.7139824200	      -28.1857414045	       -6.2360193282	        0.5981272478	       -2.7894372609	        2.4433386509	       -0.6892912792	        0.1290773614	       43.9135598092	      -11.7187394742	       -3.2291514610	       -8.4439895404	     -114.5473083557	       23.1038167463	       -0.0750870416	       -9.8472361214	       -0.1283064493	       31.4108777897	        4.7396951547	        2.6741335984	        2.6860929046	        2.5975388036	        0.0417482131	        0.3556402641	       -0.1165836621	       -2.3718760529	       -0.8579941361	       -2.0399923405	        1.8482948761	       -0.1228855837	       -0.2261665008	       -0.1929732138	
        2.0150000000	       11.1644018791	        9.9093895316	       10.2647541587	        9.0461116858	       18.9638638348	      -59.7784105325	      -29.6098661218	       -4.9410423739	        0.1901578918	       -3.3180348776	        2.4930282444	       -0.7161720952	        0.1306196065	       56.2827249236	      -10.4169987253	        1.6088819649	       -5.3108224603	      -96.1662897124	       19.7753656045	       -0.0733494529	       -7.0238115469	       -4.4733009172	       29.1052249838	        4.2499309266	        2.1469575806	        2.3407273989	        2.4053470548	        0.0386922410	        0.3196393500	       -0.1093592764	       -2.6102608710	       -0.5100683179	       -1.7133001135	        1.5553799758	       -0.1093938863	       -0.1987526044	       -0.1653317542	
        2.0200000000	       11.2731349606	       20.1766137347	        9.8986486589	       10.5100449564	       44.4006006812	      -64.5944491895	      -31.2132016926	       -2.7741093876	       -0.3462517621	       -3.9409701452	        2.5284986735	       -0.7342311537	        0.1313837680	       63.3245642033	       -7.4589859340	        2.4965812357	       -4.5137385083	      -79.7294723513	       16.2753563350	       -0.0659498909	       -4.1162623021	       -9.0990224153	       27.1461471734	        3.8524379765	        1.6416314081	        2.0165009732	        2.2243489348	        0.0364311552	        0.2866883871	       -0.1029075707	       -2.8337899673	       -0.1699088681	       -1.4129813671	        1.2630740266	       -0.0968905932	       -0.1745239377	       -0.1392804066	
        2.0250000000	       13.5127220502	       26.4081284930	       12.6774950340	       16.6494580377	       50.3802951675	      -65.8907966249	      -33.3758361462	        0.3099991071	       -0.9830123899	       -4.7250593973	        2.5385302443	       -0.7398096949	        0.1314090986	       66.4078985791	       -0.7145276562	        1.7611072733	       -4.5299558265	      -65.8096803284	       13.6541992709	       -0.0501271206	       -1.8938793362	      -13.3664989977	       25.3721449043	        3.4818703816	        1.1238956433	        1.6948131193	        1.9977831286	        0.0357195231	        0.2535442766	       -0.0929154587	       -3.0652471808	        0.1682456197	       -1.1241594697	        0.9206511923	       -0.0837965778	       -0.1529036974	       -0.1095275408	
        2.0300000000	       16.7408583698	       30.7585709202	       17.8544121234	       25.7097022569	       33.0065623206	      -62.8511045768	      -36.3965436488	        4.3319548161	       -1.6704078203	       -5.7554661310	        2.5295929461	       -0.7394949933	        0.1303572850	       67.8251338820	        8.5362472474	       -0.4985543405	       -4.7523637342	      -53.8013569727	       12.0589078555	       -0.0254862306	       -0.8856237495	      -16.6246211198	       23.5172988262	        3.0506464549	        0.5616545518	        1.3539316417	        1.6560100170	        0.0359832050	        0.2162929737	       -0.0731264989	       -3.3250800205	        0.5072342464	       -0.8264011046	        0.4759428282	       -0.0682105010	       -0.1323777486	       -0.0702890309	
        2.0350000000	       18.0542096307	       35.8915513407	       22.1964298564	       34.9312440848	      -17.5641997183	      -51.4835043823	      -40.3323168788	        9.2931819625	       -2.3609161228	       -7.1463767744	        2.4978077593	       -0.7301461100	        0.1287365274	       69.4633308133	       17.4842435822	       -1.3424966740	       -3.1281221741	      -42.2952670347	       10.9762502173	        0.0084821183	       -1.2362532245	      -18.7509022852	       21.2551117574	        2.4544208688	       -0.0623098151	        0.9769647406	        1.1441714131	        0.0380783225	        0.1714675695	       -0.0392079673	       -3.6247451861	        0.8442131379	       -0.5012149349	       -0.1046753071	       -0.0484545007	       -0.1111341679	       -0.0173062523	
        2.0400000000	       16.7137575720	       36.5143093474	       22.8765940240	       37.1722754158	      -87.8717684150	      -31.6552830373	      -44.9785793072	       14.9594589959	       -2.9431725816	       -9.0433726250	        2.4604441270	       -0.7228052121	        0.1275103033	       68.7582958211	       23.1109199056	       -0.8893750208	       -2.7982469669	      -32.1998533793	        9.7685464910	        0.0500529312	       -2.3261324428	      -18.9816995560	       18.4452861340	        1.6734079402	       -0.7251890095	        0.5686483468	        0.4928275960	        0.0409925920	        0.1194789086	        0.0061475573	       -3.9495088077	        1.1652324745	       -0.1457716823	       -0.7844227260	       -0.0249524235	       -0.0876266409	        0.0466328305	
        2.0450000000	       10.1651875918	       33.2836765789	       22.0468331174	       36.1990391999	     -170.6612643840	        0.0943704665	      -50.4889471415	       21.2195270519	       -3.1776833154	      -11.8029437103	        2.4287016426	       -0.7224265416	        0.1272430885	       63.2442826395	       25.0150826881	        1.1166920367	       -3.9635026599	      -24.6621353340	        8.4217234625	        0.0995774849	       -4.6796589297	      -18.1614358724	       14.9727082560	        0.6731477225	       -1.4016464553	        0.1383887605	       -0.2874016107	        0.0441407431	        0.0608877971	        0.0625300601	       -4.2829941738	        1.4574727034	        0.2370227735	       -1.5330357919	        0.0019876291	       -0.0611298794	        0.1197411714	
        2.0500000000	        0.7468265257	       19.9455504679	       18.9949689423	       27.7329470255	     -244.0132152497	       39.8101568011	      -56.3536455653	       27.5408018754	       -3.1869288290	      -15.6187854997	        2.4132726974	       -0.7395282152	        0.1285472343	       51.0628553952	       25.2880873426	        3.0623233185	       -9.4560208677	      -19.9674392878	        7.1504621152	        0.1541783569	       -7.4404371496	      -15.4743292273	       11.0812997433	       -0.4606131522	       -2.0355212550	       -0.2806342315	       -1.0964530155	        0.0464923847	        0.0009422662	        0.1221758690	       -4.5914278952	        1.7067207285	        0.6223950387	       -2.2554992849	        0.0296378674	       -0.0324458174	        0.1932542934	
        2.0550000000	       -7.7575382580	        1.4080765448	       16.2714328813	       18.5658309894	     -288.2851840886	       80.2934131131	      -60.7253229149	       33.1604151767	       -2.5538235641	      -20.2228397753	        2.4846303661	       -0.7885787662	        0.1336912107	       35.5040182361	       25.8061240227	        4.2698372665	      -16.5665900204	      -17.4523520016	        6.1871466046	        0.2110414435	      -10.2303469326	      -11.4869847050	        7.1885323857	       -1.6078336934	       -2.5609680484	       -0.6439393434	       -1.8276111740	        0.0474143451	       -0.0535503420	        0.1771600055	       -4.8418949848	        1.8938700037	        0.9724165953	       -2.8535570772	        0.0546934893	       -0.0039319852	        0.2577278149	
